<svg xmlns="http://www.w3.org/2000/svg" width="612" height="612"><g><title>background</title><rect id="canvas_background" width="582" height="402" x="-1" y="-1" fill="none"/></g><g><title>Layer 1</title><g id="svg_1"><g id="youtube"><g id="svg_2"><path id="svg_3" fill="#fff" d="m489.600006,81.599998l-367.200005,0c-67.483002,0 -122.400002,54.916008 -122.400002,122.400002l0,204c0,67.481995 54.917,122.400024 122.400002,122.400024l367.200005,0c67.483002,0 122.399994,-54.91803 122.399994,-122.400024l0,-204c0,-67.483994 -54.916992,-122.400002 -122.399994,-122.400002zm95.199982,326.400002c0,52.496002 -42.703979,95.199005 -95.200012,95.199005l-367.199974,0c-52.496002,0 -95.200001,-42.703003 -95.200001,-95.199005l0,-204c0,-52.496002 42.703999,-95.199997 95.200001,-95.199997l367.200005,0c52.496002,0 95.199982,42.703995 95.199982,95.199997l0,204zm-367.199982,13.067993l199.307983,-115.054993l-199.307983,-115.083008l0,230.138zm27.199997,-183.026993l117.707993,67.973007l-117.707993,67.945007l0,-135.918015z"/></g></g></g></g></svg>